<?xml version="1.0" encoding="UTF-8"?>
<svg xmlns="http://www.w3.org/2000/svg" version="1.1" viewBox="0 0 266 189">
  <defs>
    <style>
      .cls-1 {
        fill: #ce1111;
      }
    </style>
  </defs>
  <!-- Generator: Adobe Illustrator 28.7.3, SVG Export Plug-In . SVG Version: 1.2.0 Build 164)  -->
  <g>
    <g id="Layer_1">
      <g>
        <path class="cls-1" d="M52.2,161.2c2.5-21.8,5-42.7,7.4-63.9-3.7-.2-5.3.8-5.7,4.2-2.2,18.8-4.7,37.7-6.9,56.5-.4,3.4-1.5,5.2-5.1,6.1-6.7,1.6-13.3,3.9-20.7,6.1,1.8-11.7,3.4-22.6,5.1-33.6,5.2-33.4,10.5-66.7,15.5-100.1.7-4.4,2.2-6.4,6.5-7,4.7-.7,9.3-2.1,14.9-3.4-2.1,17.2-4.1,33.6-6.2,50.1,5.1-.4,5-.4,5.6-5.2,1.6-13.9,3.3-27.8,4.8-41.7.3-3.2,1.7-4.6,4.8-5,5.2-.7,10.5-1.6,16.3-2.5-.6,8.5-1.2,16.4-1.8,24.2-3,35.3-6,70.7-8.8,106-.2,3-.9,4.4-4.1,4.9-7,1.1-14,2.7-21.7,4.2Z"/>
        <path class="cls-1" d="M153.8,93.2c.6,19.6,1.2,39,1.8,58.7h-25.2V18.9c12.2.8,24-1.6,34.8,4.1,7.9,4.1,12.2,11.4,13.4,20,1.1,7.7,1.7,15.6,2,23.4.3,7.7-2.5,14.1-10.9,17.4,12.2,7.2,14,18.9,14.9,31.2,1,13.6,2.3,27.1,3.5,41.2-7.3-.9-15-1.8-22.7-3-1-.2-2.2-2.3-2.3-3.6-1.2-16.4-2.1-32.9-3.1-49.3-.2-3.7-.4-7.1-6.2-7ZM154.1,36.3c-.3.4-.7.8-1,1.3v34c3.9,1.6,5.6.3,5.5-3-.2-9.3-.6-18.6-1.2-27.9-.1-1.6-2.1-3-3.3-4.4Z"/>
        <path class="cls-1" d="M244.7,147.7c-.1,1.6-.2,3.4-.4,5.3-1.1,11.1-8.2,16.9-19.2,14.8-17.3-3.4-29-13.7-33-30.8-2.6-10.9-3.1-22.4-4.1-33.6-1.7-18.5-3.3-37.1-4.7-55.7-.3-4.1-.4-8.4.4-12.4,1.8-8.7,8-12.7,16.9-11.7,15.8,1.7,27.2,13.2,30,30.7,4.5,27.9,8.8,55.8,13.1,83.8.5,3.1.6,6.3.9,9.7ZM218.1,141.8c.7-.3,1.4-.6,2.1-.9,0-2.2.2-4.5,0-6.7-2.2-18.5-4.6-37-6.9-55.4-1.4-11-2.7-22.1-4.3-33.1-.2-1.4-2.1-2.5-3.2-3.7-.5,1.5-1.7,3.1-1.5,4.5,2.1,19.5,4.4,39,6.7,58.5,1.2,10.2,2.4,20.5,3.9,30.7.3,2.2,2.1,4.2,3.2,6.3Z"/>
        <path class="cls-1" d="M92.8,21.1c11.3-.8,22-1.5,33.1-2.3v17c-4.3.3-8.4.6-13.2.9v31.8h11.5v20.7c-3.6,0-6.8-.3-9.8.1-1.3.2-3.4,1.9-3.4,2.9-.2,11.6-.2,23.3-.2,35.2h14.8v23.8c-14.1,1.2-28.1,2.4-43,3.6,3.4-44.7,6.7-89.1,10.1-133.9Z"/>
      </g>
    </g>
  </g>
</svg>